<?xml version="1.0" encoding="iso-8859-1"?>
<!-- Generator: Adobe Illustrator 19.0.0, SVG Export Plug-In . SVG Version: 6.00 Build 0)  -->
<svg version="1.1" id="Capa_1" xmlns="http://www.w3.org/2000/svg" xmlns:xlink="http://www.w3.org/1999/xlink" x="0px" y="0px"
	 viewBox="0 0 512 512" style="enable-background:new 0 0 512 512;" xml:space="preserve">
<g>
	<g>
		<path d="M400.66,282.553l29.488-29.488c26.996-26.996,27.755-70.269,2.377-98.186L317.279,27.108C301.618,9.88,279.283,0,256,0
			c-23.283,0-45.618,9.88-61.319,27.151L79.514,154.835c-25.447,27.993-24.662,71.23,2.338,98.229l29.488,29.488
			C62.225,304.387,31,352.839,31,406v60c0,8.284,6.716,15,15,15h75v16c0,8.284,6.716,15,15,15h240c8.284,0,15-6.716,15-15v-16h75
			c8.284,0,15-6.716,15-15v-60C481,352.886,449.819,304.406,400.66,282.553z M101.752,174.972L216.919,47.288
			C226.907,36.301,241.151,30,256,30s29.093,6.301,39.042,17.245l115.246,127.771c1.228,1.351,2.353,2.776,3.381,4.258
			C365.509,159.605,308.566,151,256,151c-51.968,0-109.166,8.466-157.662,28.271C99.375,177.776,100.511,176.338,101.752,174.972z
			 M331,187.217V196c0,41.355-33.645,75-75,75c-41.355,0-75-33.645-75-75v-8.783c23.853-4.067,49.167-6.217,75-6.217
			S307.147,183.15,331,187.217z M361,482H151V376c0-8.271,6.729-15,15-15h180c8.271,0,15,6.729,15,15V482z M451,451h-60v-75
			c0-24.813-20.187-45-45-45H166c-24.813,0-45,20.187-45,45v75H61v-45c0-49.254,33.472-91.338,81.396-102.34
			c5.318-1.221,9.553-5.232,11.061-10.476c1.507-5.244,0.048-10.892-3.81-14.75l-46.582-46.582
			c-4.87-4.87-8.37-10.745-10.307-17.157c17.141-8.601,36.831-15.716,58.242-21.154V196c0,57.897,47.103,105,105,105
			c57.897,0,105-47.103,105-105v-2.46c21.412,5.438,41.101,12.553,58.242,21.154c-1.937,6.412-5.437,12.287-10.307,17.157
			l-46.582,46.582c-3.858,3.858-5.317,9.507-3.81,14.75c1.507,5.244,5.743,9.255,11.061,10.476C417.528,314.662,451,356.746,451,406
			V451z"/>
	</g>
</g>
<g>
	<g>
		<path d="M286,391h-60c-8.284,0-15,6.716-15,15s6.716,15,15,15h60c8.284,0,15-6.716,15-15S294.284,391,286,391z"/>
	</g>
</g>
<g>
</g>
<g>
</g>
<g>
</g>
<g>
</g>
<g>
</g>
<g>
</g>
<g>
</g>
<g>
</g>
<g>
</g>
<g>
</g>
<g>
</g>
<g>
</g>
<g>
</g>
<g>
</g>
<g>
</g>
</svg>
